<?xml version="1.0" encoding="utf-8"?>
<!-- Generator: Adobe Illustrator 18.1.1, SVG Export Plug-In . SVG Version: 6.00 Build 0)  -->
<svg version="1.1" xmlns="http://www.w3.org/2000/svg" xmlns:xlink="http://www.w3.org/1999/xlink" x="0px" y="0px"
	 viewBox="0 0 409.2 318" enable-background="new 0 0 409.2 318" xml:space="preserve">
<g id="Layer_1">
	<path fill="#FFFFFF" d="M27.3,141.5h26.4L34.3,251.7H7.9L27.3,141.5z M33.8,104.7h26.8L55.7,131H28.9L33.8,104.7z"/>
	<path fill="#FFFFFF" d="M46.7,241.2h36.7l2.1-10.5H48.6l19.4-110.2h63l-25.9,147h-63L46.7,241.2z M79.4,204.5h10.4l10.2-57.8H89.6
		L79.4,204.5z"/>
	<path fill="#FFFFFF" d="M183.8,120.5h-42.3l-23.1,131.2h26.4l18.2-105h10.4l-18.2,105h26.1L201.8,136
		C195,132.9,185.6,127.8,183.8,120.5z"/>
	<path fill="#FFFFFF" d="M211.2,141.5h26.4l-19.4,110.2h-26.4L211.2,141.5z"/>
	<path fill="#FFFFFF" d="M310.2,146.7l4.7-26.2h-36.6l2.8-15.8c-5,0-10,0-15.1,0c0,0.5,0,1.1-0.1,1.6c0.6,2.6-0.7,6.9-1,8.7
		c-1.6,8.3-6.2,17.1-15.3,18.7l-20.8,118h63l16.6-94.7H282l-12,68.4h-10.2l13.9-78.8H310.2z"/>
	<path fill="#FFFFFF" d="M365.3,251.7h-63l23.1-131.2h63L371.8,215h-36.3l-2.1,10.5h36.6L365.3,251.7z M357.4,146.7h-10.2l-7.4,42
		h10.5L357.4,146.7z"/>
	<g>
		<path fill="#E91D25" d="M120.8,268.5v6.5h-6.5C114.6,270.7,116.8,268.5,120.8,268.5z M120.8,276.7v6.5h-6.5v-6.5H120.8z
			 M120.8,291.2v-6.5h-6.5C114.6,289.1,116.8,291.2,120.8,291.2z M120.8,300.9v6.5h-6.5v-6.5H120.8z M128.9,268.5v6.5h-6.5v-6.5
			H128.9z M128.9,284.8v6.5h-6.5v-6.5H128.9z M128.9,300.9h-6.5v6.5h6.5V300.9z M136.9,268.5v6.5h-6.5v-6.5H136.9z M136.9,284.8v6.5
			h-6.5v-6.5H136.9z M136.9,300.9h-6.5v6.5h6.5V300.9z M145,268.5v6.5h-6.5v-6.5H145z M145,284.8v6.5h-6.5v-6.5H145z M145,300.9
			h-6.5v6.5h6.5V300.9z M153.2,268.5v6.5h-6.5v-6.5H153.2z M146.7,284.8v6.5h6.5C152.8,286.9,150.7,284.8,146.7,284.8z M153.2,292.8
			v6.5h-6.5v-6.5H153.2z M146.7,307.4v-6.5h6.5C152.8,305.2,150.7,307.4,146.7,307.4z"/>
		<path fill="#E91D25" d="M166.7,268.5v6.5h-6.5v-6.5H166.7z M174.8,268.5v6.5h-6.5v-6.5H174.8z M182.8,268.5v6.5h-6.5v-6.5H182.8z
			 M182.8,276.7v6.5h-6.5v-6.5H182.8z M182.8,284.8v6.5h-6.5v-6.5H182.8z M182.8,292.8v6.5h-6.5v-6.5H182.8z M182.8,300.9v6.5h-6.5
			v-6.5H182.8z M191,268.5v6.5h-6.5v-6.5H191z M199.1,268.5v6.5h-6.5v-6.5H199.1z"/>
		<path fill="#E91D25" d="M212.6,268.5v6.5h-6.5v-6.5H212.6z M212.6,276.7v6.5h-6.5v-6.5H212.6z M212.6,284.8v6.5h-6.5v-6.5H212.6z
			 M212.6,292.8v6.5h-6.5v-6.5H212.6z M212.6,307.4v-6.5h-6.5C206.5,305.2,208.6,307.4,212.6,307.4z M220.7,300.9v6.5h-6.5v-6.5
			H220.7z M228.8,300.9v6.5h-6.5v-6.5H228.8z M236.9,300.9v6.5h-6.5v-6.5H236.9z M245,268.5v6.5h-6.5v-6.5H245z M245,276.7v6.5h-6.5
			v-6.5H245z M245,284.8v6.5h-6.5v-6.5H245z M245,292.8v6.5h-6.5v-6.5H245z M245,300.9h-6.5v6.5C242.8,307.1,245,304.9,245,300.9z"
			/>
		<path fill="#E91D25" d="M258.5,268.5v6.5h-6.5v-6.5H258.5z M258.5,268.5v6.5h-6.5v-6.5H258.5z M258.5,276.7v6.5h-6.5v-6.5H258.5z
			 M258.5,284.8v6.5h-6.5v-6.5H258.5z M258.5,292.8v6.5h-6.5v-6.5H258.5z M258.5,300.9v6.5h-6.5v-6.5H258.5z M266.6,268.5v6.5h-6.5
			v-6.5H266.6z M266.6,300.9v6.5h-6.5v-6.5H266.6z M274.7,268.5v6.5h-6.5v-6.5H274.7z M274.7,300.9v6.5h-6.5v-6.5H274.7z
			 M282.8,268.5v6.5h-6.5v-6.5H282.8z M282.8,300.9v6.5h-6.5v-6.5H282.8z M290.9,275h-6.5v-6.5C288.7,268.9,290.9,271,290.9,275z
			 M290.9,276.7v6.5h-6.5v-6.5H290.9z M290.9,284.8v6.5h-6.5v-6.5H290.9z M290.9,292.8v6.5h-6.5v-6.5H290.9z M284.4,307.4v-6.5h6.5
			C290.6,305.2,288.4,307.4,284.4,307.4z"/>
		<path fill="#E91D25" d="M304.5,268.5v6.5h-6.4v-6.5H304.5z M304.5,283v-6.4h-6.4v6.4H304.5z M304.5,291.3v-6.4h-6.4v6.4H304.5z
			 M304.5,299.3v-6.4h-6.4v6.4H304.5z M304.5,301v6.4h-6.4V301H304.5z"/>
		<path fill="#E91D25" d="M316.4,268.5v6.5h-6.5C309.9,271,312.1,268.9,316.4,268.5z M309.9,276.7v6.5h6.5v-6.5H309.9z M309.9,284.8
			v6.5h6.5v-6.5H309.9z M309.9,292.8v6.5h6.5v-6.5H309.9z M316.4,307.4v-6.5h-6.5C309.9,304.9,312.1,307.1,316.4,307.4z
			 M318.1,268.5v6.5h6.5v-6.5H318.1z M318.1,300.9v6.5h6.5v-6.5H318.1z M326.1,268.5v6.5h6.5v-6.5H326.1z M326.1,300.9v6.5h6.5v-6.5
			H326.1z M334.2,268.5v6.5h6.5v-6.5H334.2z M334.2,300.9v6.5h6.5v-6.5H334.2z M342.3,268.5v6.5h6.5
			C348.8,271,346.6,268.9,342.3,268.5z M342.3,283.1v-6.5h6.5v6.5H342.3z M342.3,284.8v6.5h6.5v-6.5H342.3z M342.3,292.8v6.5h6.5
			v-6.5H342.3z M342.3,300.9v6.5c4,0,6.1-2.2,6.5-6.5H342.3z"/>
		<path fill="#E91D25" d="M362.3,268.5v6.5h-6.5C356.2,270.7,358.3,268.5,362.3,268.5z M362.3,276.7v6.5h-6.5v-6.5H362.3z
			 M362.3,291.2v-6.5h-6.5C356.2,289.1,358.3,291.2,362.3,291.2z M362.3,300.9v6.5h-6.5v-6.5H362.3z M370.4,268.5v6.5H364v-6.5
			H370.4z M370.4,284.8v6.5H364v-6.5H370.4z M370.4,300.9H364v6.5h6.5V300.9z M378.5,268.5v6.5H372v-6.5H378.5z M378.5,284.8v6.5
			H372v-6.5H378.5z M378.5,300.9H372v6.5h6.5V300.9z M386.6,268.5v6.5h-6.5v-6.5H386.6z M386.6,284.8v6.5h-6.5v-6.5H386.6z
			 M386.6,300.9h-6.5v6.5h6.5V300.9z M394.7,268.5v6.5h-6.5v-6.5H394.7z M388.2,284.8v6.5h6.5C394.4,286.9,392.2,284.8,388.2,284.8z
			 M394.7,292.8v6.5h-6.5v-6.5H394.7z M388.2,307.4v-6.5h6.5C394.4,305.2,392.2,307.4,388.2,307.4z"/>
	</g>
	<g>
		<path fill="#E91D25" d="M217.2,7.2c8.3,4.5,13.6,10.7,16.8,17.7c5.6,12.5,0.6,24-7,35.1c-7.3,10.7-15.5,21-22.4,31.8
			c-7.7,12-11,24.5-2.3,37.3c-2.3-0.5-4.2-1.7-7.3-5c-11.7-12.4-13.7-25.6-6.2-39.6c6.1-11.3,15.3-21.6,22.8-32.4
			c7.9-11.5,14.2-23.4,9.3-36.8C219.9,12.6,217.3,10.2,217.2,7.2L217.2,7.2z"/>
		<path fill="#E91D25" d="M243.2,48.6c-8.4,12.7-1.1,24.1,5.8,35.5c3.9,6.6,8.9,12.9,10.6,20.1c2.1,9.2-1.3,17.2-9.7,24.1
			c-0.5,0.4-1.1,0.6-2.6,1.3c1.1-2.5,2.2-4.4,2.8-6.3c2.5-7.3,0-14.1-3.7-20.7c-3.9-7-8.6-13.7-12.4-20.7
			c-4.2-7.8-6.4-15.9-1.6-24.2c2.2-3.8,5.2-7.2,10.2-9.5C242.8,48.4,243,48.5,243.2,48.6z"/>
	</g>
</g>
<g id="Layer_2">
</g>
</svg>
